<svg xmlns="http://www.w3.org/2000/svg" version="1.1" xmlns:xlink="http://www.w3.org/1999/xlink" xmlns:svgjs="http://svgjs.dev/svgjs" width="1440" height="560" preserveAspectRatio="none" viewBox="0 0 1440 560"><g mask="url(&quot;#SvgjsMask1553&quot;)" fill="none"><rect width="1440" height="560" x="0" y="0" fill="rgba(150, 74, 10, 1)"></rect><path d="M 0,189 C 57.6,175.8 172.8,110.6 288,123 C 403.2,135.4 460.8,253 576,251 C 691.2,249 748.8,111.6 864,113 C 979.2,114.4 1036.8,254.6 1152,258 C 1267.2,261.4 1382.4,155.6 1440,130L1440 560L0 560z" fill="rgba(195, 119, 33, 1)"></path><path d="M 0,431 C 22.2,409.6 66.6,301 111,324 C 155.4,347 177.6,528.6 222,546 C 266.4,563.4 288.6,419.8 333,411 C 377.4,402.2 399.6,518.4 444,502 C 488.4,485.6 510.6,339.4 555,329 C 599.4,318.6 621.6,458.8 666,450 C 710.4,441.2 732.6,288 777,285 C 821.4,282 843.6,430.8 888,435 C 932.4,439.2 954.6,293.8 999,306 C 1043.4,318.2 1065.6,500.2 1110,496 C 1154.4,491.8 1176.6,274.8 1221,285 C 1265.4,295.2 1288.2,539 1332,547 C 1375.8,555 1418.4,369.4 1440,325L1440 560L0 560z" fill="rgba(191, 108, 30, 1)"></path></g><defs><mask id="SvgjsMask1553"><rect width="1440" height="560" fill="#ffffff"></rect></mask></defs></svg>